<svg width="40" height="40" viewBox="0 0 40 40" fill="none" xmlns="http://www.w3.org/2000/svg">
<path d="M20 30C20.5667 30 21.042 29.808 21.426 29.424C21.81 29.04 22.0013 28.5653 22 28C21.9987 27.4347 21.8067 26.96 21.424 26.576C21.0413 26.192 20.5667 26 20 26C19.4333 26 18.9587 26.192 18.576 26.576C18.1933 26.96 18.0013 27.4347 18 28C17.9987 28.5653 18.1907 29.0407 18.576 29.426C18.9613 29.8113 19.436 30.0027 20 30ZM20 22C20.5667 22 21.042 21.808 21.426 21.424C21.81 21.04 22.0013 20.5653 22 20V12C22 11.4333 21.808 10.9587 21.424 10.576C21.04 10.1933 20.5653 10.0013 20 10C19.4347 9.99866 18.96 10.1907 18.576 10.576C18.192 10.9613 18 11.436 18 12V20C18 20.5667 18.192 21.042 18.576 21.426C18.96 21.81 19.4347 22.0013 20 22ZM20 40C17.2333 40 14.6333 39.4747 12.2 38.424C9.76666 37.3733 7.65 35.9487 5.85 34.15C4.05 32.3513 2.62533 30.2347 1.576 27.8C0.526669 25.3653 0.00133586 22.7653 2.53164e-06 20C-0.0013308 17.2347 0.524002 14.6347 1.576 12.2C2.628 9.76533 4.05267 7.64866 5.85 5.85C7.64733 4.05133 9.764 2.62667 12.2 1.576C14.636 0.525333 17.236 0 20 0C22.764 0 25.364 0.525333 27.8 1.576C30.236 2.62667 32.3526 4.05133 34.15 5.85C35.9473 7.64866 37.3726 9.76533 38.426 12.2C39.4793 14.6347 40.004 17.2347 40 20C39.996 22.7653 39.4706 25.3653 38.424 27.8C37.3773 30.2347 35.9526 32.3513 34.15 34.15C32.3473 35.9487 30.2306 37.374 27.8 38.426C25.3693 39.478 22.7693 40.0027 20 40Z" fill="white" fill-opacity="0.6"/>
</svg>
