<svg width="40" height="40" viewBox="0 0 40 40" fill="none" xmlns="http://www.w3.org/2000/svg">
<path d="M27.6201 29.0909C28.1714 27.4015 29.274 25.8712 30.5201 24.553C32.9896 21.947 34.5 18.4242 34.5 14.5455C34.5 6.51515 28.0052 0 20 0C11.9948 0 5.5 6.51515 5.5 14.5455C5.5 18.4242 7.01042 21.947 9.47995 24.553C10.726 25.8712 11.8362 27.4015 12.3799 29.0909H27.6125H27.6201ZM27.25 32.7273H12.75V33.9394C12.75 37.2879 15.4536 40 18.7917 40H21.2083C24.5464 40 27.25 37.2879 27.25 33.9394V32.7273ZM19.3958 8.48485C16.3901 8.48485 13.9583 10.9242 13.9583 13.9394C13.9583 14.947 13.1503 15.7576 12.1458 15.7576C11.1414 15.7576 10.3333 14.947 10.3333 13.9394C10.3333 8.91667 14.3888 4.84848 19.3958 4.84848C20.4003 4.84848 21.2083 5.65909 21.2083 6.66667C21.2083 7.67424 20.4003 8.48485 19.3958 8.48485Z" fill="#7EC0E5" fill-opacity="0.8"/>
</svg>
